<svg width="458" height="869" viewBox="0 0 458 869" fill="none" xmlns="http://www.w3.org/2000/svg">
<ellipse cx="228.5" cy="804.5" rx="182.5" ry="64.5" fill="#48453B" fill-opacity="0.24"/>
<ellipse cx="229" cy="451" rx="229" ry="328" fill="#48453B"/>
<ellipse cx="237" cy="439.5" rx="221" ry="316.5" fill="#737160"/>
<path d="M121 12C63.8001 53.2 97.1667 132.167 121 166.5L161 142.5C166.6 46.9 136.667 15.6667 121 12Z" fill="#48453B"/>
<path d="M126.968 20C73.9401 58.1333 104.873 131.222 126.968 163L164.05 140.786C169.242 52.3023 141.492 23.3937 126.968 20Z" fill="#737160"/>
<path d="M100.5 286C113.667 267.333 146.9 241.2 174.5 286" stroke="black" stroke-width="10"/>
<path d="M282 286.736C295.167 268.07 328.4 241.936 356 286.736" stroke="black" stroke-width="10"/>
<path d="M147 385C176.5 407.667 250.5 439.4 310.5 385" stroke="black" stroke-width="10"/>
<path d="M341 3C320.2 -14.6 300.667 82.6667 293.5 133.5L334 161.5C374.5 106 367 25 341 3Z" fill="#48453B"/>
<path d="M346.476 15.9891C326.562 -0.668307 307.861 91.3889 301 139.5L339.774 166C378.548 113.473 371.368 36.8108 346.476 15.9891Z" fill="#737160"/>
<ellipse cx="234" cy="590" rx="133" ry="150" fill="#828070"/>
</svg>
