<svg width="463" height="865" viewBox="0 0 463 865" fill="none" xmlns="http://www.w3.org/2000/svg">
<ellipse cx="233.5" cy="800.5" rx="182.5" ry="64.5" fill="#48453B" fill-opacity="0.24"/>
<ellipse cx="234" cy="450.102" rx="229" ry="328" fill="#48453B"/>
<ellipse cx="221.5" cy="450" rx="221.5" ry="328" fill="#737160"/>
<path d="M109.583 13C52.3831 54.2 85.7497 133.167 109.583 167.5L149.583 143.5C155.183 47.9 125.25 16.6667 109.583 13Z" fill="#48453B"/>
<path d="M107.279 19C54.2516 59.8 85.1845 138 107.279 172L144.362 148.233C149.553 53.5612 121.803 22.6311 107.279 19Z" fill="#737160"/>
<path d="M346 2.10162C325.2 -15.4984 305.667 81.7683 298.5 132.602L339 160.602C379.5 105.102 372 24.1016 346 2.10162Z" fill="#48453B"/>
<path d="M339.476 15.9891C319.562 -0.668307 300.861 91.3889 294 139.5L332.774 166C371.548 113.473 364.368 36.8108 339.476 15.9891Z" fill="#737160"/>
<line x1="139.5" y1="379.5" x2="241.5" y2="379.5" stroke="black" stroke-width="10"/>
<path d="M139 377C157.167 411.167 203.2 459 242 377" stroke="black" stroke-width="10"/>
<rect x="131" y="248" width="25" height="61" rx="12.5" fill="black"/>
<rect x="221" y="248" width="25" height="61" rx="12.5" fill="black"/>
<ellipse cx="195.5" cy="593" rx="113.5" ry="156" fill="#828070"/>
</svg>
