<svg width="252" height="12" viewBox="0 0 252 12" fill="none" xmlns="http://www.w3.org/2000/svg">
<path d="M2 1L5.28871 5.72752C7.74387 9.25682 12.7936 9.70641 15.8336 6.66636L16.6887 5.81129C19.2219 3.27813 23.415 3.59087 25.5444 6.47177V6.47177C27.8086 9.53519 32.3697 9.63136 34.7959 6.69447V6.69447C37.2012 3.78273 41.7039 3.81611 44.0316 6.79033L44.1663 6.96249C46.4523 9.88344 50.7967 10.099 53.3605 7.41859L54.9031 5.80584C57.2233 3.38016 61.2125 3.81346 62.9578 6.68073V6.68073C64.7287 9.59008 68.797 9.98427 71.0935 7.46903L72.2019 6.25501C74.7577 3.45586 79.1821 3.50947 81.6693 6.36972L82.2182 7.00088C84.8371 10.0127 89.4257 10.2683 92.363 7.56601L94.0716 5.99408C97.0447 3.25885 101.726 3.55943 104.376 6.60796V6.60796C107.106 9.74711 111.981 9.90584 114.857 6.89965L115.453 6.27641C118.115 3.49319 122.626 3.71696 125 6.75V6.75C127.374 9.78304 131.885 10.0068 134.547 7.2236L135.449 6.28064C138.087 3.52229 142.575 3.80687 144.843 6.87644V6.87644C147.048 9.85918 151.371 10.2279 154.049 7.66154L155.447 6.32173C158.533 3.36449 163.416 3.41643 166.439 6.43865L167.172 7.17199C170.053 10.0526 174.771 9.88819 177.444 6.81409V6.81409C180.158 3.69317 184.967 3.57909 187.826 6.56781L188.36 7.12592C191.23 10.1272 195.959 10.3244 199.07 7.57263L200.789 6.05235C203.978 3.23076 208.853 3.45998 211.797 6.53737V6.53737C214.89 9.77087 220.083 9.79992 223.176 6.56642V6.56642C226.133 3.47484 231.02 3.31872 234.169 6.21528L234.44 6.46498C237.975 9.71733 243.533 9.26339 246.494 5.48048L250 1" stroke="white" stroke-width="3"/>
</svg>
